# AST/ASF file generated using VICON BodyLanguage
# -----------------------------------------------
:version 1.10
:name VICON
:units
  mass 1.0
  length 0.45
  angle deg
:documentation
   .ast/.asf automatically generated from VICON data using
   VICON BodyBuilder and BodyLanguage model FoxedUp or BRILLIANT.MOD
:root
   order TX TY TZ RX RY RZ
   axis XYZ
   position 0 0 0  
   orientation 0 0 0 
:bonedata
  begin
     id 1 
     name lhipjoint
     direction 0.707368 -0.647095 0.284426 
     length 2.60678 
     axis 0 0 0  XYZ
  end
  begin
     id 2 
     name lfemur
     direction 0.34202 -0.939693 0  
     length 6.63812  
     axis 0 0 20  XYZ
    dof rx ry rz
    limits (-160.0 20.0)
           (-70.0 70.0)
           (-60.0 70.0)
  end
  begin
     id 3 
     name ltibia
     direction 0.34202 -0.939693 0   
     length 7.51178   
     axis 0 0 20   XYZ
    dof rx
    limits (-10.0 170.0)
  end
  begin
     id 4 
     name lfoot
     direction 0.121251 -0.333133 0.935051   
     length 1.83716   
     axis -90 7.62852e-016 20   XYZ
    dof rx rz
    limits (-45.0 90.0)
           (-70.0 20.0)
  end
  begin
     id 5 
     name ltoes
     direction 1.53611e-011 -4.21962e-011 1   
     length 0.916133   
     axis -90 7.62852e-016 20   XYZ
    dof rx
    limits (-90.0 20.0)
  end
  begin
     id 6 
     name rhipjoint
     direction -0.692419 -0.660507 0.290321   
     length 2.55385  
     axis 0 0 0  XYZ 
  end
  begin
     id 7 
     name rfemur
     direction -0.34202 -0.939693 0   
     length 7.29079   
     axis 0 0 -20   XYZ
    dof rx ry rz
    limits (-160.0 20.0)
           (-70.0 70.0)
           (-70.0 60.0)
  end
  begin
     id 8 
     name rtibia
     direction -0.34202 -0.939693 0   
     length 7.47143   
     axis 0 0 -20   XYZ
    dof rx
    limits (-10.0 170.0)
 end
 begin
     id 9 
     name rfoot
     direction -0.119907 -0.329441 0.936532   
     length 1.79439  
     axis -90 -7.62852e-016 -20   XYZ
    dof rx rz
    limits (-45.0 90.0)
           (-20.0 70.0)
  end
  begin
     id 10 
     name rtoes
     direction -1.53571e-011 -4.21961e-011 1   
     length 0.896039   
     axis -90 -7.62852e-016 -20   XYZ
    dof rx
    limits (-90.0 20.0)
  end
  begin
     id 11 
     name lowerback
     direction 0.0367721 0.992912 -0.113016   
     length 1.73542   
     axis 0 0 0   XYZ
    dof rx ry rz
    limits (-20.0 45.0)
           (-30.0 30.0)
           (-30.0 30.0)
  end
  begin
     id 12 
     name upperback
     direction -0.000314626 0.990678 0.136227   
     length 1.7514   
     axis 0 0 0   XYZ
    dof rx ry rz
    limits (-20.0 45.0)
           (-30.0 30.0)
           (-30.0 30.0)
  end
  begin
     id 13 
     name thorax
     direction -0.0226159 0.981151 0.191917   
     length 1.71471   
     axis 0 0 0   XYZ
    dof rx ry rz
    limits (-20.0 45.0)
           (-30.0 30.0)
           (-30.0 30.0)
  end
  begin
     id 14 
     name lowerneck
     direction 0.0219333 0.998071 0.0580739   
     length 1.65882   
     axis 0 0 0   XYZ
    dof rx ry rz
    limits (-20.0 45.0)
           (-30.0 30.0)
           (-30.0 30.0)
  end
  begin
     id 15 
     name upperneck
     direction 0.0384529 0.980058 -0.194957   
     length 1.6612   
     axis 0 0 0   XYZ
    dof rx ry rz
    limits (-20.0 45.0)
           (-30.0 30.0)
           (-30.0 30.0)
  end
  begin
     id 16
     name head
     direction 0.00592123 0.997421 -0.0715234  
     length 1.68077  
     axis 0 0 0   XYZ
    dof rx ry rz
    limits (-20.0 45.0)
           (-30.0 30.0)
           (-30.0 30.0)
  end
  begin
     id 17 
     name lclavicle
     direction 0.904803 0.417826 0.0821728  
     length 3.42227  
     axis 0 0 0   XYZ
    dof ry rz
    limits (-20.0 10.0)
           (0.0 20.0)
  end
  begin
     id 18 
     name lhumerus
     direction 1 -4.48965e-011 -2.68786e-027   
     length 5.11878   
     axis -180 -30 -90   XYZ
    dof rx ry rz
    limits (-60.0 90.0)
           (-90.0 90.0)
           (-90.0 90.0)
  end
  begin
     id 19
     name lradius
     direction 1 -4.48965e-011 2.61168e-028   
     length 3.59971   
     axis -180 -30 -90   XYZ
    dof rx
    limits (-10.0 170.0)
  end
  begin
     id 20
     name lwrist
     direction 1 -4.48965e-011 1.58672e-027   
     length 1.79985   
     axis -1.65735e-015 90 90   XYZ
    dof ry
    limits (-180.0 0.0)
 end
  begin
     id 21 
     name lhand
     direction 1 -4.48942e-011 3.17344e-027   
     length 0.62877   
     axis -2.02492e-015 90 90   XYZ
    dof rx rz
    limits (-90.0 90.0)
           (-45.0 45.0)
  end
  begin
     id 22 
     name lfingers
     direction 1 -4.49011e-011 6.34687e-027   
     length 0.506931   
     axis -4.04985e-015 90 90   XYZ
    dof rx
    limits (0.0 90.0)
  end
  begin
     id 23
     name lthumb
     direction 0.707107 -6.34982e-011 0.707107   
     length 0.727854   
     axis -90 45 2.85299e-015   XYZ
    dof rx rz
    limits (-45.0 45.0)
           (-45.0 45.0)
  end
  begin
     id 24 
     name rclavicle
     direction -0.945647 0.32488 0.0143075   
     length 3.52737  
     axis 0 0 0   XYZ 
    dof ry rz
    limits (-10.0 20.0)
           (-20.0 0.0)
  end
  begin
     id 25 
     name rhumerus
     direction -1 -4.48962e-011 1.92182e-027  
     length 5.4902   
     axis -180 30 90   XYZ
    dof rx ry rz
    limits (-90.0 60.0)
           (-90.0 90.0)
           (-90.0 90.0)
  end
  begin
     id 26 
     name rradius
     direction -1 -4.48967e-011 -5.97193e-028   
     length 3.20659   
     axis -180 30 90   XYZ
    dof rx
    limits (-10.0 170.0)
  end
  begin
     id 27 
     name rwrist
     direction -1 -4.48964e-011 1.58672e-027   
     length 1.6033   
     axis -1.65735e-015 -90 -90   XYZ
    dof ry
    limits (-180.0 0.0)
  end
  begin
     id 28
     name rhand
     direction -1 -4.49006e-011 3.17344e-027   
     length 0.691885   
     axis -2.02492e-015 -90 -90   XYZ
    dof rx rz
    limits (-90.0 90.0)
           (-45.0 45.0)
  end
  begin
     id 29
     name rfingers
     direction -1 -4.48908e-011 6.34687e-027   
     length 0.557815   
     axis -4.04985e-015 -90 -90   XYZ
    dof rx
    limits (0.0 90.0)
  end
  begin
     id 30
     name rthumb
     direction -0.707107 -6.34999e-011 0.707107   
     length 0.800915   
     axis -90 -45 -2.85299e-015   XYZ
    dof rx rz
    limits (-45.0 45.0)
           (-45.0 45.0)
  end
:hierarchy
  begin
    root lhipjoint rhipjoint lowerback
    lhipjoint lfemur
    lfemur ltibia
    ltibia lfoot
    lfoot ltoes
    rhipjoint rfemur
    rfemur rtibia
    rtibia rfoot
    rfoot rtoes
    lowerback upperback
    upperback thorax
    thorax lowerneck lclavicle rclavicle
    lowerneck upperneck
    upperneck head
    lclavicle lhumerus
    lhumerus lradius
    lradius lwrist
    lwrist lhand lthumb
    lhand lfingers
    rclavicle rhumerus
    rhumerus rradius
    rradius rwrist
    rwrist rhand rthumb
    rhand rfingers
  end

#!OML:ASF I:\Actors\actors\Patient Classification 1\Patient 1\Session 1\Subject1.ASF
:FULLY-SPECIFIED
:DEGREES
77
root -0.152639 17.4298 8.54056 9.96893 1.18218 -8.61456
lowerback -2.30255 0.452603 5.55511
upperback -9.24269 0.940027 2.69148
thorax -8.41158 0.171702 -0.302497
lowerneck -4.18981 -13.4443 -12.3507
upperneck 25.8008 -19.7757 8.08493
head 11.0968 -9.59508 2.45986
rclavicle 1.02747e-014 -2.03754e-014
rhumerus -45.6919 -19.9277 -73.8794
rradius 26.5461
rwrist 35.3821
rhand 6.04767 -34.685
rfingers 7.12502
rthumb 31.3687 -62.0156
lclavicle 1.02747e-014 -2.03754e-014
lhumerus -45.4574 18.6396 78.2304
lradius 21.1978
lwrist -23.7194
lhand -15.3138 -12.9908
lfingers 7.12502
lthumb 10.8621 16.7083
rfemur -3.54468 25.5987 23.6653
rtibia 1.79653
rfoot -14.092 -27.0158
rtoes 3.00507
lfemur 5.40799 -49.6791 -11.0363
ltibia -4.5409
lfoot -33.8562 57.758
ltoes 17.0045
78
root -0.152525 17.4285 8.53985 9.95965 1.18281 -8.67381
lowerback -2.31388 0.449914 5.60087
upperback -9.24029 0.938411 2.71988
thorax -8.4031 0.16897 -0.297705
lowerneck -4.17627 -13.4526 -12.3798
upperneck 25.7817 -19.7854 8.0918
head 11.0924 -9.60228 2.46578
rclavicle -1.91082e-014 3.18055e-015
rhumerus -45.6635 -19.8903 -73.8964
rradius 26.5299
rwrist 35.3691
rhand 6.01987 -34.747
rfingers 7.12502
rthumb 31.3423 -62.0827
lclavicle -1.91082e-014 3.18055e-015
lhumerus -45.4182 18.5767 78.3372
lradius 21.2768
lwrist -23.7239
lhand -15.2423 -12.3384
lfingers 7.12502
lthumb 10.931 17.3571
rfemur -3.53062 25.5886 23.7421
rtibia 1.80374
rfoot -14.1521 -26.9869
rtoes 3.03601
lfemur 5.46648 -49.7452 -11.0099
ltibia -4.55896
lfoot -34.1031 57.7737
ltoes 17.2447
79
root -0.152964 17.4276 8.53949 9.96341 1.16531 -8.71679
lowerback -2.32773 0.455407 5.62829
upperback -9.2521 0.947437 2.74127
thorax -8.40827 0.172104 -0.290482
lowerneck -4.19724 -13.4627 -12.4413
upperneck 25.8077 -19.8025 8.121
head 11.1192 -9.61117 2.47903
rclavicle -1.27843e-014 8.16011e-014
rhumerus -45.6824 -19.8852 -73.8802
rradius 26.5331
rwrist 35.4224
rhand 5.99895 -34.7048
rfingers 7.12502
rthumb 31.3223 -62.0443
lclavicle -1.27843e-014 8.16011e-014
lhumerus -45.4463 18.6484 78.2517
lradius 21.1771
lwrist -23.7854
lhand -15.3919 -12.9154
lfingers 7.12502
lthumb 10.7868 16.7877
rfemur -3.54027 25.5914 23.7903
rtibia 1.80226
rfoot -14.1055 -26.9724
rtoes 2.91235
lfemur 5.57198 -49.9378 -11.0392
ltibia -4.6005
lfoot -34.3568 57.9501
ltoes 17.4131
80
root -0.152544 17.428 8.53783 9.96703 1.16587 -8.70921
lowerback -2.32268 0.458195 5.63622
upperback -9.26336 0.951905 2.73263
thorax -8.42338 0.172875 -0.304091
lowerneck -4.16305 -13.4788 -12.4992
upperneck 25.7878 -19.838 8.18191
head 11.1235 -9.62821 2.50472
rclavicle -9.0944e-015 4.31363e-014
rhumerus -45.6987 -19.9104 -73.8655
rradius 26.5466
rwrist 35.4976
rhand 6.02117 -34.6469
rfingers 7.12502
rthumb 31.3435 -61.9823
lclavicle -9.0944e-015 4.31363e-014
lhumerus -45.47 18.6713 78.1759
lradius 21.0898
lwrist -23.7761
lhand -15.4939 -13.5572
lfingers 7.12502
lthumb 10.6883 16.151
rfemur -3.55954 25.5793 23.7732
rtibia 1.80402
rfoot -14.0679 -26.9686
rtoes 2.83341
lfemur 5.61746 -50.0724 -11.0873
ltibia -4.61317
lfoot -34.4164 58.0743
ltoes 17.3134
81
root -0.152004 17.4289 8.53551 9.95145 1.16852 -8.67385
lowerback -2.28672 0.44922 5.61844
upperback -9.26728 0.942115 2.72587
thorax -8.44909 0.168454 -0.30102
lowerneck -4.10764 -13.4736 -12.4785
upperneck 25.7566 -19.8305 8.16612
head 11.0958 -9.62764 2.50266
rclavicle 4.31114e-015 2.33572e-014
rhumerus -45.6873 -19.8816 -73.8828
rradius 26.567
rwrist 35.514
rhand 6.06587 -34.6484
rfingers 7.12502
rthumb 31.3861 -61.9756
lclavicle 4.31114e-015 2.33572e-014
lhumerus -45.422 18.3124 78.542
lradius 21.4204
lwrist -23.5605
lhand -15.112 -11.8324
lfingers 7.12502
lthumb 11.0567 17.8563
rfemur -3.54783 25.5837 23.7352
rtibia 1.79787
rfoot -14.0749 -26.988
rtoes 2.8444
lfemur 5.5841 -49.9882 -11.1088
ltibia -4.58035
lfoot -34.3238 57.9769
ltoes 17.1735
82
root -0.15229 17.4298 8.53437 9.92778 1.144 -8.62948
lowerback -2.2618 0.449924 5.58236
upperback -9.26329 0.942767 2.70972
thorax -8.45876 0.170559 -0.298329
lowerneck -4.13238 -13.476 -12.353
upperneck 25.7954 -19.8138 8.03284
head 11.0827 -9.62056 2.44031
rclavicle -1.22004e-014 2.87244e-014
rhumerus -45.6634 -19.8842 -73.9141
rradius 26.5584
rwrist 35.522
rhand 6.05909 -34.6296
rfingers 7.12502
rthumb 31.3796 -61.958
lclavicle -1.22004e-014 2.87244e-014
lhumerus -45.4147 18.197 78.6266
lradius 21.5371
lwrist -23.5133
lhand -14.9226 -11.256
lfingers 7.12502
lthumb 11.2394 18.4229
rfemur -3.52007 25.5831 23.6901
rtibia 1.78624
rfoot -14.0692 -26.9729
rtoes 3.03816
lfemur 5.60345 -49.9433 -11.1913
ltibia -4.5414
lfoot -34.4544 57.8892
ltoes 17.3868
83
root -0.153147 17.4308 8.53341 9.90603 1.13485 -8.62001
lowerback -2.2434 0.460071 5.58023
upperback -9.2605 0.956339 2.68915
thorax -8.46534 0.176384 -0.31971
lowerneck -4.20724 -13.4997 -12.2481
upperneck 25.8766 -19.8333 7.92443
head 11.1051 -9.62623 2.37857
rclavicle -4.84538e-016 1.38155e-014
rhumerus -45.6489 -19.9528 -73.9373
rradius 26.5337
rwrist 35.5429
rhand 6.00949 -34.654
rfingers 7.12502
rthumb 31.3324 -61.9916
lclavicle -4.84538e-016 1.38155e-014
lhumerus -45.4103 18.0981 78.6393
lradius 21.5547
lwrist -23.4627
lhand -14.9181 -11.2771
lfingers 7.12502
lthumb 11.2437 18.4016
rfemur -3.49331 25.5779 23.6905
rtibia 1.79353
rfoot -14.0857 -26.931
rtoes 3.33117
lfemur 5.62741 -49.9208 -11.2261
ltibia -4.52192
lfoot -34.5413 57.8279
ltoes 17.589
84
root -0.154515 17.432 8.53047 9.89115 1.15843 -8.65271
lowerback -2.20814 0.452139 5.60176
upperback -9.26838 0.950886 2.70689
thorax -8.49552 0.172179 -0.312647
lowerneck -4.28416 -13.4807 -12.2145
upperneck 25.949 -19.8042 7.89937
head 11.1369 -9.60786 2.36316
rclavicle 3.10601e-016 -8.24956e-015
rhumerus -45.6342 -19.8794 -74.0023
rradius 26.5519
rwrist 35.4198
rhand 5.96641 -34.7492
rfingers 7.12502
rthumb 31.2913 -62.0947
lclavicle 3.10601e-016 -8.24956e-015
lhumerus -45.4116 18.0816 78.6496
lradius 21.5547
lwrist -23.4872
lhand -14.9179 -11.3393
lfingers 7.12502
lthumb 11.2439 18.3394
rfemur -3.48005 25.5924 23.7421
rtibia 1.78678
rfoot -14.0819 -26.9683
rtoes 3.26516
lfemur 5.56269 -49.8034 -11.1166
ltibia -4.5297
lfoot -34.278 57.7504
ltoes 17.4109
85
root -0.15567 17.4324 8.5273 9.89311 1.16788 -8.66291
lowerback -2.19393 0.438878 5.58067
upperback -9.27454 0.936399 2.74224
thorax -8.51213 0.167832 -0.26281
lowerneck -4.34489 -13.4418 -12.2318
upperneck 25.9852 -19.7462 7.90962
head 11.1586 -9.57866 2.37338
rclavicle -1.86236e-014 -6.4605e-015
rhumerus -45.6116 -19.6924 -74.0853
rradius 26.5967
rwrist 35.1933
rhand 5.97439 -34.8511
rfingers 7.12502
rthumb 31.2989 -62.1952
lclavicle -1.86236e-014 -6.4605e-015
lhumerus -45.4025 18.0817 78.6953
lradius 21.5583
lwrist -23.4833
lhand -14.9426 -11.3717
lfingers 7.12502
lthumb 11.2201 18.3083
rfemur -3.48771 25.658 23.7566
rtibia 1.77067
rfoot -14.0681 -27.0665
rtoes 3.11137
lfemur 5.54226 -49.8582 -11.0759
ltibia -4.5556
lfoot -34.2558 57.8399
ltoes 17.2955
86
root -0.155751 17.4317 8.5258 9.90158 1.15298 -8.6435
lowerback -2.20155 0.444591 5.55609
upperback -9.27867 0.943401 2.74807
thorax -8.51199 0.173382 -0.243294
lowerneck -4.36288 -13.4183 -12.2205
upperneck 25.9815 -19.7078 7.90035
head 11.1535 -9.56039 2.37381
rclavicle -4.72114e-016 2.69353e-014
rhumerus -45.6153 -19.646 -74.0896
rradius 26.6218
rwrist 35.1191
rhand 6.05813 -34.8854
rfingers 7.12502
rthumb 31.3787 -62.214
lclavicle -4.72114e-016 2.69353e-014
lhumerus -45.4092 18.0368 78.7025
lradius 21.5055
lwrist -23.3241
lhand -15.0797 -11.9147
lfingers 7.12502
lthumb 11.0879 17.7724
rfemur -3.48909 25.7498 23.7328
rtibia 1.75938
rfoot -14.0848 -27.1351
rtoes 3.25078
lfemur 5.60157 -50.0571 -11.1586
ltibia -4.55251
lfoot -34.6312 57.9733
ltoes 17.4983
